<?xml version="1.0" encoding="utf-8"?>
<!-- Generator: Adobe Illustrator 24.1.1, SVG Export Plug-In . SVG Version: 6.00 Build 0)  -->
<svg version="1.1" id="sdgs-7" xmlns="http://www.w3.org/2000/svg" xmlns:xlink="http://www.w3.org/1999/xlink" x="0px" y="0px"
	 viewBox="0 0 164.332 164.332" width="164.332" height="164.332" style="enable-background:new 0 0 164.332 164.332;" xml:space="preserve">
<style type="text/css">
	.st0{fill:#FABD00;}
	.st1{fill:#FFFFFF;}
</style>
<g>
	<rect class="st0" width="164.332" height="164.332"/>
	<g>
		<path class="st1" d="M21.996,18.858h-8.511v-4.565h14.352V18.2l-6.615,27.427h-5.803L21.996,18.858z"/>
	</g>
	<g>
		<path class="st1" d="M82.226,80.062c-13.361,0-24.193,10.833-24.193,24.195c0,13.368,10.832,24.198,24.193,24.198
			s24.193-10.83,24.193-24.198C106.419,90.894,95.587,80.062,82.226,80.062 M80.434,89.62c0-0.805,0.808-1.692,1.801-1.692
			c0.991,0,1.792,0.887,1.792,1.692v8.307c0,0.801-0.802,1.679-1.792,1.679c-0.993,0-1.801-0.877-1.801-1.679V89.62z M82.23,116.656
			c-6.95,0-12.584-5.633-12.584-12.584c0-5.649,3.719-10.427,8.844-12.02v4.686c-2.668,1.363-4.498,4.132-4.498,7.335
			c0,4.55,3.687,8.238,8.238,8.238s8.238-3.688,8.238-8.238c0-3.212-1.839-5.986-4.519-7.346v-4.681
			c5.135,1.586,8.867,6.369,8.867,12.026C94.816,111.022,89.182,116.656,82.23,116.656"/>
		<path class="st1" d="M54.452,104.045c0-1.097-0.972-1.986-1.859-1.986H41.997c-0.894,0-1.874,0.889-1.874,1.986
			c0,1.1,0.981,1.994,1.874,1.994h10.595C53.48,106.039,54.452,105.145,54.452,104.045"/>
		<path class="st1" d="M124.34,104.045c0-1.097-0.972-1.986-1.86-1.986h-10.595c-0.893,0-1.873,0.889-1.873,1.986
			c0,1.1,0.981,1.994,1.873,1.994h10.595C123.368,106.039,124.34,105.145,124.34,104.045"/>
		<path class="st1" d="M82.236,146.156c1.095,0,1.985-0.972,1.985-1.859v-10.594c0-0.893-0.89-1.874-1.985-1.874
			c-1.099,0-1.995,0.982-1.995,1.874v10.594C80.241,145.185,81.137,146.156,82.236,146.156"/>
		<path class="st1" d="M118.78,124.962c0.544-0.951,0.142-2.206-0.627-2.647l-9.196-5.263c-0.775-0.444-2.069-0.159-2.613,0.794
			c-0.546,0.953-0.139,2.217,0.636,2.66l9.196,5.263C116.946,126.209,118.233,125.917,118.78,124.962"/>
		<path class="st1" d="M61.32,140.597c0.951,0.544,2.205,0.142,2.646-0.628l5.263-9.195c0.444-0.776,0.159-2.07-0.793-2.614
			c-0.953-0.546-2.218-0.138-2.661,0.636l-5.263,9.196C60.071,138.762,60.365,140.051,61.32,140.597"/>
		<path class="st1" d="M103.225,140.55c0.951-0.547,1.237-1.832,0.796-2.601l-5.282-9.186c-0.447-0.774-1.705-1.181-2.657-0.634
			c-0.954,0.547-1.239,1.843-0.791,2.619l5.281,9.185C101.013,140.701,102.271,141.098,103.225,140.55"/>
		<path class="st1" d="M45.731,125.044c0.546,0.95,1.831,1.236,2.601,0.794l9.184-5.282c0.775-0.445,1.184-1.704,0.635-2.655
			c-0.546-0.954-1.843-1.239-2.617-0.795l-9.185,5.282C45.58,122.83,45.183,124.09,45.731,125.044"/>
		<path class="st1" d="M82.236,76.27c1.095,0,1.985-0.972,1.985-1.858V63.815c0-0.894-0.89-1.873-1.985-1.873
			c-1.099,0-1.995,0.98-1.995,1.873v10.596C80.241,75.298,81.137,76.27,82.236,76.27"/>
		<path class="st1" d="M58.123,90.247c0.546-0.953,0.144-2.206-0.627-2.647L48.3,82.338c-0.776-0.445-2.068-0.16-2.613,0.792
			c-0.546,0.955-0.138,2.217,0.637,2.662l9.196,5.263C56.289,91.495,57.577,91.202,58.123,90.247"/>
		<path class="st1" d="M96.034,79.941c0.952,0.544,2.204,0.142,2.646-0.627l5.263-9.196c0.445-0.777,0.16-2.069-0.792-2.614
			c-0.954-0.547-2.218-0.138-2.662,0.637l-5.263,9.195C94.786,78.108,95.078,79.395,96.034,79.941"/>
		<path class="st1" d="M68.387,79.965c0.951-0.547,1.237-1.832,0.794-2.602l-5.282-9.186c-0.447-0.774-1.704-1.18-2.656-0.633
			c-0.955,0.547-1.239,1.843-0.793,2.618l5.281,9.184C66.175,80.116,67.432,80.513,68.387,79.965"/>
		<path class="st1" d="M106.316,90.204c0.546,0.95,1.831,1.236,2.601,0.795l9.184-5.282c0.775-0.446,1.184-1.705,0.637-2.656
			c-0.549-0.953-1.843-1.239-2.619-0.794l-9.185,5.282C106.165,87.991,105.767,89.252,106.316,90.204"/>
	</g>
	<g>
		<path class="st1" d="M40.643,26.918v-1.631h3.542v-6.156h-2.949v-1.632h7.387v1.632h-2.958v6.156h3.596v1.631H40.643z"/>
		<path class="st1" d="M56.022,22.164v1.705c0,1.294,0.009,2.592,0.009,3.875h-1.404c0-1.41,0-2.817,0.012-4.22
			c-0.744,0.764-1.921,1.547-2.806,1.938c-0.312-0.516-0.655-0.986-1.02-1.438c1.75-0.564,4.245-2.472,5.098-4.766
			c-1.272,0.014-2.548,0.157-3.822,0.233c-0.024-0.61-0.045-1.205-0.079-1.813c1.639,0,3.292-0.012,4.932-0.095
			c0.244,0,0.476-0.046,0.72-0.108l0.412,0.812C57.418,19.617,56.832,20.994,56.022,22.164z M55.524,17.228
			c-0.689-0.672-1.44-1.19-2.207-1.675c0.246-0.468,0.479-0.917,0.722-1.387c0.82,0.449,1.608,1.03,2.363,1.703
			C56.121,16.339,55.835,16.79,55.524,17.228z M58.85,25.304c-0.677-1.094-1.509-1.937-2.35-2.75l0.81-1.247
			c0.885,0.605,1.806,1.609,2.503,2.591L58.85,25.304z"/>
		<path class="st1" d="M64.145,17.583c-0.068,3.257,0.287,6.279-1.298,8.984c-0.3,0.519-0.677,0.98-1.073,1.329
			c-0.356-0.319-0.888-0.81-1.155-1.06c1.742-1.534,2.097-3.493,2.097-6.266c0-1.169-0.024-2.4-0.046-3.575l1.475,0.19
			c0.065,0.018,0.122,0.047,0.122,0.161C64.267,17.44,64.2,17.534,64.145,17.583z M68.248,26.353
			c-0.588,0.458-1.23,0.807-1.851,1.185c-0.299-0.271-0.61-0.507-0.875-0.823c0.066-0.252,0.11-0.507,0.11-0.773v-1.947
			c0-2.436-0.033-4.919-0.068-7.354l1.544,0.252c0.064,0.017,0.121,0.078,0.121,0.19c0,0.127-0.099,0.224-0.166,0.269
			c-0.021,0.679-0.012,1.344-0.012,2.024c0,1.914-0.021,3.877-0.054,5.789c0.877-0.521,1.864-1.453,2.561-2.354
			c0.232-0.285,0.443-0.619,0.665-0.934c0.024-0.031,0.046-0.08,0.078-0.08c0.055,0,0.055,0.158,0.055,0.191
			c0.045,0.664,0.121,1.295,0.212,1.943C69.879,24.882,69.089,25.685,68.248,26.353z"/>
		<path class="st1" d="M77.585,23.869c0.07,1.434,0.132,2.851,0.223,4.287c-0.477,0.048-0.953,0.066-1.43,0.131
			c-0.049-1.449-0.122-2.882-0.16-4.329c-1.253,0.043-2.494,0.089-3.738,0.178c-0.011-0.536-0.022-1.074-0.034-1.612
			c0.285,0.021,0.566,0.027,0.856,0.036c0.951,0.023,1.895-0.063,2.838-0.085c-0.037-0.836-0.065-1.654-0.118-2.49
			c-0.853,0.008-1.697,0.061-2.551,0.102c-0.011-0.536-0.056-1.092-0.079-1.631c0.832,0.02,1.675,0.011,2.519-0.027
			c-0.048-0.896-0.109-1.777-0.179-2.675l1.516,0.184c0.086,0.017,0.187,0.095,0.183,0.229c-0.002,0.133-0.094,0.238-0.185,0.278
			c0.012,0.655,0.034,1.3,0.039,1.955c0.899-0.022,1.788-0.091,2.676-0.206c-0.011,0.57,0,1.119-0.01,1.671
			c-0.864-0.004-1.728,0.004-2.584,0.028c0.039,0.819,0.066,1.642,0.116,2.466c1.189-0.048,2.387-0.123,3.576-0.243
			c0.012,0.554-0.012,1.104,0.002,1.643C79.906,23.744,78.739,23.823,77.585,23.869z M79.22,17.603
			c-0.188-0.862-0.459-1.684-0.735-2.505l1.055-0.443c0.268,0.767,0.476,1.581,0.661,2.387L79.22,17.603z M80.948,17.227
			c-0.208-0.881-0.435-1.752-0.723-2.572l1.014-0.403c0.284,0.806,0.505,1.536,0.681,2.381L80.948,17.227z"/>
		<path class="st1" d="M91.704,23.033c-0.675-0.043-1.208-0.043-1.754-0.043c-0.628-0.016-4.95,0-6.458,0.059
			c-0.024-0.58-0.057-1.318-0.068-1.752c-0.015-0.217,0.082-0.23,0.154-0.217c0.2,0.061,0.579,0.086,0.687,0.102
			c0.723,0.043,1.492,0.031,2.324,0.031c1.72,0,3.253-0.047,5.177-0.072C91.727,21.719,91.718,22.453,91.704,23.033z"/>
		<path class="st1" d="M102.285,21.897c-0.05,0-0.102-0.028-0.152-0.072c-0.737,0.303-2.158,0.985-2.834,1.362v2.234l-1.207-0.014
			c0.01-0.205,0.01-0.421,0.01-0.669v-0.813c-0.821,0.467-1.228,1.061-1.228,1.725c0,0.581,0.469,0.883,1.403,0.883
			c1.01,0,1.931-0.157,2.976-0.578l-0.043,1.697c-0.898,0.363-1.892,0.424-2.567,0.424c-2.005,0-3.006-0.771-3.006-2.324
			c0-0.754,0.285-1.449,0.837-2.088c0.348-0.391,0.869-0.813,1.556-1.244c-0.021-0.655-0.186-0.988-0.48-0.988
			c-0.381,0-0.728,0.176-1.054,0.552c-0.206,0.233-0.469,0.536-0.791,0.985c-0.376,0.508-0.613,0.855-0.754,1.031
			c-0.186-0.263-0.47-0.654-0.849-1.19c1.145-1.088,2.003-2.405,2.576-3.927c-0.54,0.084-1.145,0.143-1.799,0.186
			c-0.041-0.553-0.101-1.061-0.163-1.508c0.959,0,1.748-0.043,2.343-0.147c0.121-0.418,0.234-1.086,0.347-2l1.381,0.378
			c0.08,0.028,0.124,0.089,0.124,0.173c0,0.089-0.053,0.16-0.164,0.216c-0.051,0.251-0.146,0.626-0.277,1.12
			c0.47-0.073,1.164-0.291,1.914-0.538l-0.115,1.593c-0.562,0.148-1.319,0.292-2.26,0.451c-0.144,0.438-0.378,0.971-0.634,1.449
			c0.247-0.086,0.451-0.098,0.584-0.098c0.623,0,1.032,0.505,1.217,1.549c0.817-0.52,1.749-1.059,2.763-1.608l0.47,1.623
			C102.408,21.838,102.369,21.897,102.285,21.897z"/>
		<path class="st1" d="M112.705,25.758c-0.452-0.455-0.911-0.924-1.393-1.305c-0.444,1.35-1.311,3.024-2.252,3.679l-1.065-0.9
			c1.01-0.679,1.778-2.025,2.224-3.497c-0.62-0.41-1.261-0.75-1.949-0.934c-0.166,0.512-0.33,1.029-0.532,1.518
			c-0.478,1.209-1.135,2.434-2.24,2.405c-0.91-0.024-1.522-1.067-1.49-2.334c0.04-1.622,1.021-2.743,2.075-3.054
			c0.439-0.128,0.893-0.131,1.326-0.106c0.258-1.021,0.655-2.459,0.916-3.545l-2.279,0.162l-0.162-1.592L106,16.268
			c0.762,0.082,3.066,0.065,3.727-0.182c0.119,0.262,0.265,0.516,0.406,0.769c-0.347,0.891-0.62,1.521-0.876,2.447
			c-0.197,0.699-0.373,1.4-0.597,2.082c0.688,0.172,1.321,0.432,1.94,0.813c0.244-0.97,0.366-2.025,0.422-3.049
			c0.412,0.363,0.82,0.713,1.206,1.103c-0.103,0.9-0.23,1.8-0.451,2.65c0.524,0.35,1.063,0.705,1.567,1.156
			C113.141,24.621,112.93,25.197,112.705,25.758z M105.228,24.342c-0.009,0.385,0.103,0.724,0.398,0.731
			c0.194,0.006,0.326-0.082,0.459-0.262c0.359-0.451,0.742-1.604,0.933-2.225C106.26,22.641,105.26,23.062,105.228,24.342z"/>
		<path class="st1" d="M120.772,27.733c-1.458,0.006-1.35-1.719-1.35-3.066l-0.001-1.338c0-0.393,0.01-0.87-0.398-0.867
			c-0.096-0.001-0.194,0.027-0.292,0.057c-1.646,0.541-2.269,3.379-2.784,5.166c-0.437-0.266-0.867-0.531-1.295-0.795
			c0.449-1.391,0.954-2.743,1.469-4.108c0.578-1.521,1.148-3.051,1.74-4.569c0.326-0.846,0.632-1.705,0.986-2.533
			c0.402,0.208,1.007,0.514,1.38,0.778c0.043,0.03,0.076,0.07,0.076,0.14c0,0.114-0.098,0.185-0.187,0.186
			c-0.732,1.423-1.389,2.926-2.058,4.391c-0.065,0.142-0.13,0.27-0.196,0.396c0.448-0.286,0.952-0.539,1.456-0.542
			c1.065-0.005,1.395,0.909,1.396,2.128c0,0.733-0.011,1.449-0.01,2.18c0,0.364,0.046,0.866,0.418,0.865
			c0.481-0.001,0.88-0.369,1.231-0.762c0.452-0.521,0.648-1.056,0.966-1.718c0.175,0.671,0.352,1.332,0.507,2.006
			C123.093,27.092,122.078,27.727,120.772,27.733z"/>
		<path class="st1" d="M130.25,18.781c-0.539,0.099-0.991,0.172-1.523,0.219c-0.573,1.939-1.326,4.448-2.404,6.231
			c-0.387-0.237-0.769-0.511-1.143-0.788c0.978-1.638,1.702-3.66,2.243-5.447c-0.529,0.03-1.209,0.008-1.738-0.042
			c0.006-0.483,0.004-0.97,0.012-1.466c0.187,0.051,0.377,0.074,0.578,0.1c0.489,0.059,0.987,0.092,1.485,0.068
			c0.195-0.816,0.261-1.414,0.335-2.211c0.584,0,1.108,0.051,1.521,0.081c-0.064,0.485-0.322,1.537-0.501,2.103
			c0.447-0.055,0.885-0.193,1.328-0.309C130.385,17.798,130.313,18.288,130.25,18.781z M133.4,27.374
			c-0.434-0.563-0.88-1.142-1.403-1.585c-0.003,0.16-0.014,0.316-0.026,0.471c-0.11,1.469-0.99,1.803-1.987,1.727
			c-0.35-0.027-0.704-0.112-1.037-0.273c-0.654-0.338-1.294-1.13-1.217-2.128c0.108-1.441,1.069-2.098,2.108-2.016
			c0.3,0.024,0.607,0.077,0.902,0.154c0.017-0.674-0.077-1.335-0.047-2.002c0.017-0.344,0.062-0.645,0.179-0.967
			c0.332,0.016,0.662,0.03,0.998,0.046c0.066,0.003,0.391-0.042,0.382,0.128c-0.001,0.031-0.002,0.046-0.014,0.057
			c-0.146,0.25-0.224,0.564-0.238,0.863c-0.036,0.758,0.042,1.533,0.042,2.295c0.78,0.42,1.66,1.146,2.272,1.883
			C134.027,26.492,133.725,26.955,133.4,27.374z M130.734,25.102c-0.231-0.146-0.504-0.197-0.782-0.219
			c-0.421-0.033-0.952,0.069-1.003,0.74c-0.049,0.656,0.568,1.007,1.001,1.039c0.413,0.034,0.716-0.045,0.763-0.656
			C130.735,25.705,130.737,25.406,130.734,25.102z M133.789,20.205c-0.747-0.755-1.675-1.012-2.591-1.297l0.619-1.374
			c0.916,0.304,1.908,0.512,2.654,1.298L133.789,20.205z"/>
		<path class="st1" d="M57.129,45.225c-0.818,0.664-1.792,0.959-2.743,0.959c-1.469,0-2.392-1.142-2.474-3.148
			c-0.019-0.27-0.01-0.537-0.01-0.805c0-0.762,0.01-1.524,0.03-2.301c0.032-1.823,0.052-3.661,0.073-5.483
			c0.321,0.058,0.65,0.13,0.974,0.214c0.133,0.025,0.277,0.041,0.404,0.1c0.081,0.042,0.183,0.098,0.183,0.224
			c0,0.113-0.082,0.199-0.154,0.239c-0.124,2.46-0.216,4.944-0.216,7.403c0,1.255,0.414,2.019,1.376,2.019
			c0.444,0,0.9-0.153,1.313-0.409c0.951-0.549,1.611-1.738,2.079-2.951l0.755,1.836C58.347,43.898,57.716,44.745,57.129,45.225z"/>
		<path class="st1" d="M67.434,36.496c-0.04-0.002-0.085-0.019-0.125-0.021c-0.457-0.018-0.942,0.032-1.399,0.237
			c-1.304,0.583-2.306,2.423-2.377,4.398c-0.104,2.922,1.768,3.341,3.352,3.406c-0.098,0.547-0.197,1.109-0.325,1.654
			c-0.068-0.002-0.142-0.006-0.211-0.008c-0.7-0.03-1.519-0.235-2.158-0.601c-1.21-0.685-2.139-2.643-2.07-4.576
			c0.061-1.706,0.496-3.003,1.346-4.262c-1.189,0.1-2.384,0.245-3.563,0.446c-0.001-0.564-0.022-1.125-0.013-1.68
			c2.045-0.066,4.081-0.178,6.119-0.521c0.482-0.09,0.954-0.191,1.423-0.341c0.023,0.218,0.147,1.618,0.143,1.73
			C67.572,36.476,67.501,36.498,67.434,36.496z"/>
		<path class="st1" d="M77.976,37.592c-0.168,0.565-0.313,1.146-0.5,1.693c-0.697,1.99-1.42,3.512-2.649,4.938
			c-0.876,1.002-1.874,1.816-2.937,2.352c-0.367-0.457-0.752-0.91-1.141-1.334c0.589-0.299,1.175-0.598,1.718-1.018
			c0.665-0.549,1.329-1.129,1.871-1.898c0.918-1.297,1.574-2.774,2.007-4.512l-2.461,0.047c-0.653,1.285-1.452,2.521-2.361,3.479
			c-0.332-0.389-0.663-0.797-1.019-1.16c1.531-1.568,2.615-3.824,3.25-6.318l1.385,0.646c0.067,0.029,0.133,0.109,0.133,0.219
			c0,0.141-0.124,0.203-0.201,0.203c-0.156,0.422-0.287,0.861-0.474,1.254c0.885,0,1.771-0.016,2.657-0.016
			c0.179,0,0.378-0.016,0.567-0.076c0.13,0.264,0.276,0.5,0.399,0.77C78.141,37.106,78.051,37.358,77.976,37.592z"/>
		<path class="st1" d="M82.787,35.545c0,0.197,0,0.395,0,0.592c0,1.889,0,3.793,0.01,5.682h-1.495
			c0.011-0.352,0.024-0.707,0.024-1.043V38.69c0-1.24-0.013-2.48-0.058-3.707l1.584,0.168c0.056,0,0.11,0.055,0.11,0.129
			C82.962,35.404,82.865,35.49,82.787,35.545z M87.211,35.563c0,0.858,0.023,1.703,0.023,2.563c0,2.483-0.046,4.879-1.353,6.893
			c-0.402,0.607-0.878,1.131-1.466,1.51c-0.388-0.322-0.809-0.705-1.229-0.973c0.476-0.352,1.031-0.818,1.397-1.354
			c1.097-1.564,1.164-3.439,1.164-5.428c0-1.297-0.066-2.594-0.133-3.875l1.574,0.182c0.088,0.016,0.189,0.072,0.189,0.197
			C87.377,35.404,87.29,35.504,87.211,35.563z"/>
		<path class="st1" d="M98.008,41.113c-0.671-0.043-1.202-0.043-1.741-0.043c-0.626-0.012-4.804,0-6.301,0.059
			c-0.023-0.564-0.061-1.281-0.071-1.707c-0.011-0.211,0.085-0.227,0.156-0.211c0.199,0.057,0.577,0.084,0.681,0.1
			c0.719,0.041,2.122,0.027,2.944,0.027c1.71,0,2.484-0.043,4.389-0.07C98.031,39.83,98.02,40.553,98.008,41.113z"/>
		<path class="st1" d="M102.844,44.902c-0.588,0.35-1.185,0.635-1.817,0.816c-0.062-0.182-0.71-1.889-0.71-1.889
			c0-0.061,0.05-0.061,0.081-0.061c0.144,0,0.299-0.031,0.444-0.076c1.146-0.301,2.259-0.982,3.292-1.783
			c1.392-1.076,2.692-2.438,3.846-4.01c0.085,0.742,0.186,1.482,0.28,2.227C106.659,42.227,104.835,43.738,102.844,44.902z
			 M102.605,38.795c-0.618-1.045-1.289-1.996-2.063-2.816c0.404-0.422,0.784-0.875,1.177-1.315c0.744,0.787,1.404,1.725,1.99,2.768
			C103.38,37.945,102.998,38.367,102.605,38.795z"/>
		<path class="st1" d="M112.947,45.948c-0.397,0.045-0.792,0.102-1.201,0.159c-0.495-1.761-0.571-3.671-0.571-5.539
			c0-2.089,0.242-4.19,0.571-6.235l0.957,0.247c0.144,0.047,0.331,0.061,0.473,0.135c0.068,0.028,0.124,0.073,0.124,0.191
			c0,0.115-0.099,0.189-0.176,0.189c-0.441,2.045-0.64,4.352-0.64,6.469c0,0.529,0.021,1.045,0.021,1.576
			c0.198-0.664,0.387-1.339,0.595-2.003c0.274,0.282,0.552,0.574,0.824,0.854C113.441,43.3,113.09,44.475,112.947,45.948z
			 M119.948,45.258c-0.607,0.147-1.399,0.146-2.012,0.123c-1.574-0.055-3.041-0.338-3.233-3.007
			c0.372-0.311,0.743-0.639,1.124-0.935c0.003,1.516,0.641,2.198,1.666,2.234c0.81,0.028,1.702-0.028,2.48-0.332
			C119.965,43.978,119.956,44.61,119.948,45.258z M119.547,37.378c-0.85-0.201-1.687-0.258-2.552-0.177
			c-0.592,0.056-1.178,0.185-1.764,0.344c-0.046-0.527-0.078-1.18-0.134-1.704c0.822-0.254,1.657-0.252,2.496-0.333
			c0.695-0.066,1.385,0.005,2.079,0.115C119.632,36.202,119.601,36.794,119.547,37.378z"/>
		<path class="st1" d="M138.38,27.59c-0.387,0.045-0.771,0.102-1.169,0.158c-0.48-1.756-0.556-3.66-0.556-5.524
			c0-2.083,0.236-4.179,0.556-6.217l0.932,0.246c0.14,0.046,0.322,0.061,0.46,0.134c0.066,0.028,0.121,0.073,0.121,0.191
			c0,0.115-0.096,0.189-0.172,0.189c-0.43,2.039-0.622,4.34-0.622,6.45c0,0.528,0.021,1.042,0.021,1.572
			c0.192-0.662,0.376-1.335,0.579-1.997c0.267,0.281,0.538,0.572,0.802,0.851C138.861,24.948,138.519,26.12,138.38,27.59z
			 M145.309,26.733c-0.592,0.146-1.362,0.145-1.958,0.122c-1.532-0.054-2.959-0.336-3.147-2.998c0.362-0.31,0.723-0.637,1.094-0.932
			c0.003,1.512,0.623,2.191,1.621,2.228c0.789,0.027,1.657-0.029,2.414-0.332C145.325,25.456,145.316,26.088,145.309,26.733z
			 M144.918,18.875c-0.827-0.199-1.641-0.257-2.484-0.176c-0.576,0.055-1.146,0.185-1.716,0.343c-0.045-0.526-0.075-1.177-0.131-1.7
			c0.8-0.252,1.612-0.25,2.429-0.332c0.676-0.065,1.348,0.006,2.023,0.115C145,17.703,144.971,18.293,144.918,18.875z"/>
		<path class="st1" d="M45.561,40.195c-0.654,0.489-1.1,1.824-0.909,2.939c0.224,1.327,1.71,1.475,2.489,1.459
			c0.246-0.004,0.506-0.026,0.765-0.056c-0.111,0.517-0.239,1.021-0.348,1.528l-0.227,0.004c-1.52,0.032-3.703-0.216-3.947-2.744
			c-0.149-1.551,0.235-2.773,0.825-3.514c-1.269,0.226-2.535,0.563-3.76,1.025c-0.081-0.515-0.196-1.02-0.299-1.522
			c0.654-0.172,1.366-0.229,1.989-0.557c0.642-0.338,2.039-2.184,2.557-2.886c-0.757,0.084-1.521,0.14-2.268,0.113
			c-0.006-0.477-0.018-0.957-0.056-1.427c1.124,0.072,2.297,0.132,3.417-0.094c0.3-0.06,0.577-0.203,0.851-0.349
			c0.227,0.423,0.452,0.862,0.654,1.297c-1.111,0.878-2.212,2.161-3.212,3.249c1.595-0.256,3.198-0.447,4.792-0.595
			c-0.008,0.545,0.004,1.094-0.014,1.638C47.916,39.614,46.412,39.568,45.561,40.195z"/>
	</g>
</g>
</svg>
