<?xml version="1.0" encoding="utf-8"?>
<!-- Generator: Adobe Illustrator 25.2.3, SVG Export Plug-In . SVG Version: 6.00 Build 0)  -->
<svg version="1.1" id="編集モード" xmlns="http://www.w3.org/2000/svg" xmlns:xlink="http://www.w3.org/1999/xlink" x="0px"
	 y="0px" viewBox="0 0 42 41.9" style="enable-background:new 0 0 42 41.9;" xml:space="preserve">
<style type="text/css">
	.st0{fill:#5FBA46;}
	.st1{fill:#D19F2A;}
	.st2{fill:#C22033;}
	.st3{fill:#2D9A47;}
	.st4{fill:#48773C;}
	.st5{fill:#FDB714;}
	.st6{fill:#EF412A;}
	.st7{fill:#F99D25;}
	.st8{fill:#007DBB;}
	.st9{fill:#8F1838;}
	.st10{fill:#00ADD8;}
	.st11{fill:#F36E24;}
	.st12{fill:#EA1D2D;}
	.st13{fill:#E01A83;}
	.st14{fill:#1B3668;}
	.st15{fill:#CD8B2A;}
	.st16{fill:#00558A;}
</style>
<path class="st0" d="M10.8,15c0.5-0.9,1.2-1.7,1.9-2.4L6.5,5.8C4.9,7.3,3.6,9,2.6,10.9L10.8,15z"/>
<path class="st1" d="M25.9,10.2c0.9,0.4,1.8,1,2.6,1.6l6.2-6.8c-1.6-1.4-3.5-2.6-5.5-3.4L25.9,10.2z"/>
<path class="st2" d="M40,12.2l-8.2,4.1c0.4,0.9,0.7,1.9,0.8,2.9l9.1-0.9C41.5,16.2,40.9,14.1,40,12.2"/>
<path class="st3" d="M31.3,15.1l8.2-4.1c-1-1.9-2.3-3.6-3.8-5.1l-6.2,6.7C30.2,13.4,30.8,14.3,31.3,15.1"/>
<path class="st4" d="M9.1,21c0-0.2,0-0.4,0-0.6L0,19.6c0,0.5,0,0.9,0,1.4c0,1.7,0.2,3.4,0.6,5.1l8.8-2.5C9.2,22.7,9.1,21.8,9.1,21"
	/>
<path class="st5" d="M30.1,28.5c-0.6,0.8-1.4,1.5-2.2,2.1l4.8,7.8c1.8-1.2,3.4-2.7,4.7-4.4L30.1,28.5z"/>
<path class="st6" d="M32.8,21c0,0.9-0.1,1.7-0.3,2.5l8.8,2.5c0.4-1.6,0.6-3.3,0.6-5c0-0.4,0-0.9,0-1.3l-9.1,0.9
	C32.8,20.7,32.8,20.8,32.8,21"/>
<path class="st7" d="M12,28.6l-7.3,5.5c1.4,1.7,3,3.1,4.8,4.3l4.8-7.8C13.4,30.1,12.6,29.4,12,28.6"/>
<path class="st8" d="M9.3,19.1c0.2-1,0.5-2,0.9-2.9L2,12.1c-0.9,1.9-1.5,4-1.8,6.2L9.3,19.1z"/>
<path class="st9" d="M31.6,39.1l-4.8-7.8c-0.9,0.5-1.8,0.9-2.8,1.1l1.7,9C27.8,40.9,29.8,40.1,31.6,39.1"/>
<path class="st10" d="M32.2,24.8c-0.3,0.9-0.8,1.8-1.3,2.6l7.3,5.5c1.2-1.7,2.1-3.6,2.8-5.6L32.2,24.8z"/>
<path class="st11" d="M22.7,32.7c-0.6,0.1-1.1,0.1-1.7,0.1c-0.5,0-0.9,0-1.4-0.1l-1.7,9c1,0.1,2,0.2,3.1,0.2c1.2,0,2.3-0.1,3.4-0.3
	L22.7,32.7z"/>
<path class="st12" d="M21.7,9.2c1,0.1,2,0.3,2.9,0.6l3.3-8.5c-2-0.7-4-1.1-6.2-1.2V9.2z"/>
<path class="st13" d="M18.3,32.5c-1-0.2-2-0.6-2.9-1.1l-4.8,7.8c1.9,1.1,3.9,1.8,6,2.3L18.3,32.5z"/>
<path class="st14" d="M17.4,9.7c0.9-0.3,2-0.5,3-0.5V0c-2.2,0.1-4.3,0.5-6.3,1.1L17.4,9.7z"/>
<path class="st15" d="M11.2,27.6c-0.6-0.9-1.1-1.8-1.4-2.8L1,27.3c0.7,2.1,1.7,4.1,2.9,5.8L11.2,27.6z"/>
<path class="st16" d="M13.6,11.7c0.8-0.6,1.6-1.1,2.5-1.5l-3.3-8.5c-2,0.8-3.8,1.9-5.4,3.3L13.6,11.7z"/>
</svg>
