<?xml version="1.0" encoding="UTF-8" standalone="no"?><svg xmlns="http://www.w3.org/2000/svg" xmlns:xlink="http://www.w3.org/1999/xlink" contentStyleType="text/css" height="2147px" preserveAspectRatio="none" style="width:1086px;height:2147px;background:#FFFFFF;" version="1.1" viewBox="0 0 1086 2147" width="1086px" zoomAndPan="magnify"><defs/><g><rect height="162.9297" style="stroke:#000000;stroke-width:1.5;fill:none;" width="905.5" x="20" y="214.8281"/><rect height="133.6641" style="stroke:#000000;stroke-width:1.5;fill:none;" width="1049.5" x="20" y="434.8906"/><rect height="252.3281" style="stroke:#000000;stroke-width:1.5;fill:none;" width="1015.5" x="10" y="582.5547"/><rect height="162.9297" style="stroke:#000000;stroke-width:1.5;fill:none;" width="995.5" x="20" y="664.9531"/><rect height="263.1953" style="stroke:#000000;stroke-width:1.5;fill:none;" width="645.5" x="20" y="848.8828"/><rect height="105.6641" style="stroke:#000000;stroke-width:1.5;fill:none;" width="294" x="371.5" y="1126.0781"/><rect height="309.5938" style="stroke:#000000;stroke-width:1.5;fill:none;" width="907.5" x="10" y="1245.7422"/><rect height="178.0625" style="stroke:#000000;stroke-width:1.5;fill:none;" width="887.5" x="20" y="1370.2734"/><rect height="162.9297" style="stroke:#000000;stroke-width:1.5;fill:none;" width="938.5" x="20" y="1859.6641"/><line style="stroke:#181818;stroke-width:0.5;fill:none;stroke-dasharray:5.0,5.0;" x1="58" x2="58" y1="67.2969" y2="2068.7266"/><line style="stroke:#181818;stroke-width:0.5;fill:none;stroke-dasharray:5.0,5.0;" x1="404.5" x2="404.5" y1="67.2969" y2="2068.7266"/><line style="stroke:#181818;stroke-width:0.5;fill:none;stroke-dasharray:5.0,5.0;" x1="458.5" x2="458.5" y1="67.2969" y2="2068.7266"/><line style="stroke:#181818;stroke-width:0.5;fill:none;stroke-dasharray:5.0,5.0;" x1="619.5" x2="619.5" y1="67.2969" y2="2068.7266"/><line style="stroke:#181818;stroke-width:0.5;fill:none;stroke-dasharray:5.0,5.0;" x1="706.5" x2="706.5" y1="67.2969" y2="2068.7266"/><line style="stroke:#181818;stroke-width:0.5;fill:none;stroke-dasharray:5.0,5.0;" x1="1010.5" x2="1010.5" y1="67.2969" y2="2068.7266"/><rect fill="#00FF00" height="30.2969" rx="2.5" ry="2.5" style="stroke:#181818;stroke-width:0.5;" width="57" x="30" y="36"/><text fill="#000000" font-family="sans-serif" font-size="14" lengthAdjust="spacing" textLength="43" x="37" y="55.9951">Admin</text><rect fill="#00FF00" height="30.2969" rx="2.5" ry="2.5" style="stroke:#181818;stroke-width:0.5;" width="57" x="30" y="2067.7266"/><text fill="#000000" font-family="sans-serif" font-size="14" lengthAdjust="spacing" textLength="43" x="37" y="2087.7217">Admin</text><rect fill="#E2E2F0" height="30.2969" rx="2.5" ry="2.5" style="stroke:#181818;stroke-width:0.5;" width="46" x="381.5" y="36"/><text fill="#000000" font-family="sans-serif" font-size="14" lengthAdjust="spacing" textLength="32" x="388.5" y="55.9951">Alice</text><rect fill="#E2E2F0" height="30.2969" rx="2.5" ry="2.5" style="stroke:#181818;stroke-width:0.5;" width="46" x="381.5" y="2067.7266"/><text fill="#000000" font-family="sans-serif" font-size="14" lengthAdjust="spacing" textLength="32" x="388.5" y="2087.7217">Alice</text><rect fill="#E2E2F0" height="30.2969" rx="2.5" ry="2.5" style="stroke:#181818;stroke-width:0.5;" width="42" x="437.5" y="36"/><text fill="#000000" font-family="sans-serif" font-size="14" lengthAdjust="spacing" textLength="28" x="444.5" y="55.9951">Bob</text><rect fill="#E2E2F0" height="30.2969" rx="2.5" ry="2.5" style="stroke:#181818;stroke-width:0.5;" width="42" x="437.5" y="2067.7266"/><text fill="#000000" font-family="sans-serif" font-size="14" lengthAdjust="spacing" textLength="28" x="444.5" y="2087.7217">Bob</text><text fill="#000000" font-family="sans-serif" font-size="14" lengthAdjust="spacing" textLength="66" x="583.5" y="63.9951">Database</text><path d="M601.5,15 C601.5,5 619.5,5 619.5,5 C619.5,5 637.5,5 637.5,15 L637.5,41 C637.5,51 619.5,51 619.5,51 C619.5,51 601.5,51 601.5,41 L601.5,15 " fill="#E2E2F0" style="stroke:#181818;stroke-width:1.5;"/><path d="M601.5,15 C601.5,25 619.5,25 619.5,25 C619.5,25 637.5,25 637.5,15 " fill="none" style="stroke:#181818;stroke-width:1.5;"/><text fill="#000000" font-family="sans-serif" font-size="14" lengthAdjust="spacing" textLength="66" x="583.5" y="2080.7217">Database</text><path d="M601.5,2094.0234 C601.5,2084.0234 619.5,2084.0234 619.5,2084.0234 C619.5,2084.0234 637.5,2084.0234 637.5,2094.0234 L637.5,2120.0234 C637.5,2130.0234 619.5,2130.0234 619.5,2130.0234 C619.5,2130.0234 601.5,2130.0234 601.5,2120.0234 L601.5,2094.0234 " fill="#E2E2F0" style="stroke:#181818;stroke-width:1.5;"/><path d="M601.5,2094.0234 C601.5,2104.0234 619.5,2104.0234 619.5,2104.0234 C619.5,2104.0234 637.5,2104.0234 637.5,2094.0234 " fill="none" style="stroke:#181818;stroke-width:1.5;"/><text fill="#000000" font-family="sans-serif" font-size="14" lengthAdjust="spacing" textLength="76" x="665.5" y="63.9951">XRPLedger</text><path d="M688.5,15 C688.5,5 706.5,5 706.5,5 C706.5,5 724.5,5 724.5,15 L724.5,41 C724.5,51 706.5,51 706.5,51 C706.5,51 688.5,51 688.5,41 L688.5,15 " fill="#00FFFF" style="stroke:#181818;stroke-width:1.5;"/><path d="M688.5,15 C688.5,25 706.5,25 706.5,25 C706.5,25 724.5,25 724.5,15 " fill="none" style="stroke:#181818;stroke-width:1.5;"/><text fill="#000000" font-family="sans-serif" font-size="14" lengthAdjust="spacing" textLength="76" x="665.5" y="2080.7217">XRPLedger</text><path d="M688.5,2094.0234 C688.5,2084.0234 706.5,2084.0234 706.5,2084.0234 C706.5,2084.0234 724.5,2084.0234 724.5,2094.0234 L724.5,2120.0234 C724.5,2130.0234 706.5,2130.0234 706.5,2130.0234 C706.5,2130.0234 688.5,2130.0234 688.5,2120.0234 L688.5,2094.0234 " fill="#00FFFF" style="stroke:#181818;stroke-width:1.5;"/><path d="M688.5,2094.0234 C688.5,2104.0234 706.5,2104.0234 706.5,2104.0234 C706.5,2104.0234 724.5,2104.0234 724.5,2094.0234 " fill="none" style="stroke:#181818;stroke-width:1.5;"/><text fill="#000000" font-family="sans-serif" font-size="14" lengthAdjust="spacing" textLength="92" x="961.5" y="63.9951">EnergyServer</text><path d="M992.5,15 C992.5,5 1010.5,5 1010.5,5 C1010.5,5 1028.5,5 1028.5,15 L1028.5,41 C1028.5,51 1010.5,51 1010.5,51 C1010.5,51 992.5,51 992.5,41 L992.5,15 " fill="#00FF00" style="stroke:#181818;stroke-width:1.5;"/><path d="M992.5,15 C992.5,25 1010.5,25 1010.5,25 C1010.5,25 1028.5,25 1028.5,15 " fill="none" style="stroke:#181818;stroke-width:1.5;"/><text fill="#000000" font-family="sans-serif" font-size="14" lengthAdjust="spacing" textLength="92" x="961.5" y="2080.7217">EnergyServer</text><path d="M992.5,2094.0234 C992.5,2084.0234 1010.5,2084.0234 1010.5,2084.0234 C1010.5,2084.0234 1028.5,2084.0234 1028.5,2094.0234 L1028.5,2120.0234 C1028.5,2130.0234 1010.5,2130.0234 1010.5,2130.0234 C1010.5,2130.0234 992.5,2130.0234 992.5,2120.0234 L992.5,2094.0234 " fill="#00FF00" style="stroke:#181818;stroke-width:1.5;"/><path d="M992.5,2094.0234 C992.5,2104.0234 1010.5,2104.0234 1010.5,2104.0234 C1010.5,2104.0234 1028.5,2104.0234 1028.5,2094.0234 " fill="none" style="stroke:#181818;stroke-width:1.5;"/><rect fill="#EEEEEE" height="3" style="stroke:#EEEEEE;stroke-width:1.0;" width="1079.5" x="0" y="97.8633"/><line style="stroke:#000000;stroke-width:1.0;" x1="0" x2="1079.5" y1="97.8633" y2="97.8633"/><line style="stroke:#000000;stroke-width:1.0;" x1="0" x2="1079.5" y1="100.8633" y2="100.8633"/><rect fill="#EEEEEE" height="23.1328" style="stroke:#000000;stroke-width:2.0;" width="188" x="445.75" y="87.2969"/><text fill="#000000" font-family="sans-serif" font-size="13" font-weight="bold" lengthAdjust="spacing" textLength="174" x="451.75" y="103.3638">Beginning of the Month</text><polygon fill="#181818" points="607.5,137.5625,617.5,141.5625,607.5,145.5625,611.5,141.5625" style="stroke:#181818;stroke-width:1.0;"/><line style="stroke:#181818;stroke-width:1.0;stroke-dasharray:2.0,2.0;" x1="58.5" x2="613.5" y1="141.5625" y2="141.5625"/><text fill="#000000" font-family="sans-serif" font-size="13" font-weight="bold" lengthAdjust="spacing" textLength="23" x="65.5" y="136.4966">1.1</text><text fill="#000000" font-family="sans-serif" font-size="13" lengthAdjust="spacing" textLength="202" x="92.5" y="136.4966">Sequest last month usage data</text><polygon fill="#181818" points="69.5,166.6953,59.5,170.6953,69.5,174.6953,65.5,170.6953" style="stroke:#181818;stroke-width:1.0;"/><line style="stroke:#181818;stroke-width:1.0;stroke-dasharray:2.0,2.0;" x1="63.5" x2="618.5" y1="170.6953" y2="170.6953"/><text fill="#000000" font-family="sans-serif" font-size="13" font-weight="bold" lengthAdjust="spacing" textLength="23" x="75.5" y="165.6294">1.2</text><text fill="#000000" font-family="sans-serif" font-size="13" lengthAdjust="spacing" textLength="182" x="102.5" y="165.6294">Send last month usage data</text><polygon fill="#181818" points="392.5,195.8281,402.5,199.8281,392.5,203.8281,396.5,199.8281" style="stroke:#181818;stroke-width:1.0;"/><line style="stroke:#181818;stroke-width:1.0;" x1="58.5" x2="398.5" y1="199.8281" y2="199.8281"/><text fill="#000000" font-family="sans-serif" font-size="13" font-weight="bold" lengthAdjust="spacing" textLength="23" x="65.5" y="194.7622">1.3</text><text fill="#000000" font-family="sans-serif" font-size="13" lengthAdjust="spacing" textLength="271" x="92.5" y="194.7622">Display last month usage &amp; payment data</text><path d="M20,214.8281 L86,214.8281 L86,221.9609 L76,231.9609 L20,231.9609 L20,214.8281 " fill="#EEEEEE" style="stroke:#000000;stroke-width:1.5;"/><rect fill="none" height="162.9297" style="stroke:#000000;stroke-width:1.5;" width="905.5" x="20" y="214.8281"/><text fill="#000000" font-family="sans-serif" font-size="13" font-weight="bold" lengthAdjust="spacing" textLength="16" x="35" y="227.895">Tx</text><text fill="#000000" font-family="sans-serif" font-size="11" font-weight="bold" lengthAdjust="spacing" textLength="64" x="101" y="227.0386">[ex: Alice]</text><line style="stroke:#181818;stroke-width:1.0;" x1="704.5" x2="694.5" y1="268.2266" y2="264.2266"/><line style="stroke:#181818;stroke-width:1.0;" x1="704.5" x2="694.5" y1="268.2266" y2="272.2266"/><line style="stroke:#181818;stroke-width:1.0;stroke-dasharray:2.0,2.0;" x1="58.5" x2="705.5" y1="268.2266" y2="268.2266"/><text fill="#000000" font-family="sans-serif" font-size="13" font-weight="bold" lengthAdjust="spacing" textLength="23" x="65.5" y="255.5942">1.4</text><text fill="#000000" font-family="sans-serif" font-size="13" lengthAdjust="spacing" textLength="230" x="92.5" y="248.0278">Request transaction(Admin to Alice)</text><text fill="#000000" font-family="sans-serif" font-size="13" lengthAdjust="spacing" textLength="177" x="96.5" y="263.1606">Amount:last month's usage</text><line style="stroke:#181818;stroke-width:1.0;stroke-dasharray:2.0,2.0;" x1="706.5" x2="748.5" y1="312.4922" y2="312.4922"/><line style="stroke:#181818;stroke-width:1.0;stroke-dasharray:2.0,2.0;" x1="748.5" x2="748.5" y1="312.4922" y2="325.4922"/><line style="stroke:#181818;stroke-width:1.0;stroke-dasharray:2.0,2.0;" x1="707.5" x2="748.5" y1="325.4922" y2="325.4922"/><line style="stroke:#181818;stroke-width:1.0;" x1="707.5" x2="717.5" y1="325.4922" y2="321.4922"/><line style="stroke:#181818;stroke-width:1.0;" x1="707.5" x2="717.5" y1="325.4922" y2="329.4922"/><text fill="#000000" font-family="sans-serif" font-size="13" font-weight="bold" lengthAdjust="spacing" textLength="23" x="713.5" y="299.8599">1.5</text><text fill="#000000" font-family="sans-serif" font-size="13" lengthAdjust="spacing" textLength="135" x="740.5" y="292.2935">Add UPX token(Alice)</text><text fill="#000000" font-family="sans-serif" font-size="13" lengthAdjust="spacing" textLength="173" x="740.5" y="307.4263">Remove UPX token(Admin)</text><polygon fill="#181818" points="607.5,365.7578,617.5,369.7578,607.5,373.7578,611.5,369.7578" style="stroke:#181818;stroke-width:1.0;"/><line style="stroke:#181818;stroke-width:1.0;stroke-dasharray:2.0,2.0;" x1="58.5" x2="613.5" y1="369.7578" y2="369.7578"/><text fill="#000000" font-family="sans-serif" font-size="13" font-weight="bold" lengthAdjust="spacing" textLength="23" x="65.5" y="357.1255">1.6</text><text fill="#000000" font-family="sans-serif" font-size="13" lengthAdjust="spacing" textLength="118" x="92.5" y="349.5591">Report transaction</text><text fill="#000000" font-family="sans-serif" font-size="13" lengthAdjust="spacing" textLength="110" x="92.5" y="364.6919">(price &amp; amount)</text><rect fill="#EEEEEE" height="3" style="stroke:#EEEEEE;stroke-width:1.0;" width="1079.5" x="0" y="405.3242"/><line style="stroke:#000000;stroke-width:1.0;" x1="0" x2="1079.5" y1="405.3242" y2="405.3242"/><line style="stroke:#000000;stroke-width:1.0;" x1="0" x2="1079.5" y1="408.3242" y2="408.3242"/><rect fill="#EEEEEE" height="23.1328" style="stroke:#000000;stroke-width:2.0;" width="86" x="496.75" y="394.7578"/><text fill="#000000" font-family="sans-serif" font-size="13" font-weight="bold" lengthAdjust="spacing" textLength="67" x="502.75" y="410.8247">Everyday</text><path d="M20,434.8906 L369,434.8906 L369,442.0234 L359,452.0234 L20,452.0234 L20,434.8906 " fill="#EEEEEE" style="stroke:#000000;stroke-width:1.5;"/><rect fill="none" height="133.6641" style="stroke:#000000;stroke-width:1.5;" width="1049.5" x="20" y="434.8906"/><text fill="#000000" font-family="sans-serif" font-size="13" font-weight="bold" lengthAdjust="spacing" textLength="304" x="35" y="447.9575">Reflection of EnergyServer on Databasse</text><polygon fill="#181818" points="630.5,469.1563,620.5,473.1563,630.5,477.1563,626.5,473.1563" style="stroke:#181818;stroke-width:1.0;"/><line style="stroke:#181818;stroke-width:1.0;stroke-dasharray:2.0,2.0;" x1="624.5" x2="1009.5" y1="473.1563" y2="473.1563"/><text fill="#000000" font-family="sans-serif" font-size="13" font-weight="bold" lengthAdjust="spacing" textLength="23" x="636.5" y="468.0903">2.1</text><text fill="#000000" font-family="sans-serif" font-size="13" lengthAdjust="spacing" textLength="327" x="663.5" y="468.0903">Send student usage &amp; solar power generation data</text><polygon fill="#181818" points="607.5,498.2891,617.5,502.2891,607.5,506.2891,611.5,502.2891" style="stroke:#181818;stroke-width:1.0;"/><line style="stroke:#181818;stroke-width:1.0;stroke-dasharray:2.0,2.0;" x1="58.5" x2="613.5" y1="502.2891" y2="502.2891"/><text fill="#000000" font-family="sans-serif" font-size="13" font-weight="bold" lengthAdjust="spacing" textLength="23" x="65.5" y="497.2231">2.2</text><text fill="#000000" font-family="sans-serif" font-size="13" lengthAdjust="spacing" textLength="181" x="92.5" y="497.2231">Request student usage data</text><polygon fill="#181818" points="69.5,527.4219,59.5,531.4219,69.5,535.4219,65.5,531.4219" style="stroke:#181818;stroke-width:1.0;"/><line style="stroke:#181818;stroke-width:1.0;stroke-dasharray:2.0,2.0;" x1="63.5" x2="618.5" y1="531.4219" y2="531.4219"/><text fill="#000000" font-family="sans-serif" font-size="13" font-weight="bold" lengthAdjust="spacing" textLength="23" x="75.5" y="526.356">2.3</text><text fill="#000000" font-family="sans-serif" font-size="13" lengthAdjust="spacing" textLength="162" x="102.5" y="526.356">Send student usage data</text><polygon fill="#181818" points="392.5,556.5547,402.5,560.5547,392.5,564.5547,396.5,560.5547" style="stroke:#181818;stroke-width:1.0;"/><line style="stroke:#181818;stroke-width:1.0;" x1="58.5" x2="398.5" y1="560.5547" y2="560.5547"/><text fill="#000000" font-family="sans-serif" font-size="13" font-weight="bold" lengthAdjust="spacing" textLength="23" x="65.5" y="555.4888">2.4</text><text fill="#000000" font-family="sans-serif" font-size="13" lengthAdjust="spacing" textLength="204" x="92.5" y="555.4888">Show next payment information</text><path d="M10,582.5547 L161,582.5547 L161,589.6875 L151,599.6875 L10,599.6875 L10,582.5547 " fill="#EEEEEE" style="stroke:#000000;stroke-width:1.5;"/><rect fill="none" height="252.3281" style="stroke:#000000;stroke-width:1.5;" width="1015.5" x="10" y="582.5547"/><text fill="#000000" font-family="sans-serif" font-size="13" font-weight="bold" lengthAdjust="spacing" textLength="106" x="25" y="595.6216">Daily Payment</text><polygon fill="#181818" points="607.5,616.8203,617.5,620.8203,607.5,624.8203,611.5,620.8203" style="stroke:#181818;stroke-width:1.0;"/><line style="stroke:#181818;stroke-width:1.0;stroke-dasharray:2.0,2.0;" x1="58.5" x2="613.5" y1="620.8203" y2="620.8203"/><text fill="#000000" font-family="sans-serif" font-size="13" font-weight="bold" lengthAdjust="spacing" textLength="23" x="65.5" y="615.7544">3.1</text><text fill="#000000" font-family="sans-serif" font-size="13" lengthAdjust="spacing" textLength="258" x="92.5" y="615.7544">Request yesterday's student usage data</text><polygon fill="#181818" points="69.5,645.9531,59.5,649.9531,69.5,653.9531,65.5,649.9531" style="stroke:#181818;stroke-width:1.0;"/><line style="stroke:#181818;stroke-width:1.0;stroke-dasharray:2.0,2.0;" x1="63.5" x2="618.5" y1="649.9531" y2="649.9531"/><text fill="#000000" font-family="sans-serif" font-size="13" font-weight="bold" lengthAdjust="spacing" textLength="23" x="75.5" y="644.8872">3.2</text><text fill="#000000" font-family="sans-serif" font-size="13" lengthAdjust="spacing" textLength="239" x="102.5" y="644.8872">Send yesterday's student usage data</text><path d="M20,664.9531 L86,664.9531 L86,672.0859 L76,682.0859 L20,682.0859 L20,664.9531 " fill="#EEEEEE" style="stroke:#000000;stroke-width:1.5;"/><rect fill="none" height="162.9297" style="stroke:#000000;stroke-width:1.5;" width="995.5" x="20" y="664.9531"/><text fill="#000000" font-family="sans-serif" font-size="13" font-weight="bold" lengthAdjust="spacing" textLength="16" x="35" y="678.02">Tx</text><text fill="#000000" font-family="sans-serif" font-size="11" font-weight="bold" lengthAdjust="spacing" textLength="64" x="101" y="677.1636">[ex: Alice]</text><line style="stroke:#181818;stroke-width:1.0;" x1="704.5" x2="694.5" y1="718.3516" y2="714.3516"/><line style="stroke:#181818;stroke-width:1.0;" x1="704.5" x2="694.5" y1="718.3516" y2="722.3516"/><line style="stroke:#181818;stroke-width:1.0;stroke-dasharray:2.0,2.0;" x1="58.5" x2="705.5" y1="718.3516" y2="718.3516"/><text fill="#000000" font-family="sans-serif" font-size="13" font-weight="bold" lengthAdjust="spacing" textLength="23" x="65.5" y="705.7192">3.3</text><text fill="#000000" font-family="sans-serif" font-size="13" lengthAdjust="spacing" textLength="230" x="92.5" y="698.1528">Request transaction(Alice to Admin)</text><text fill="#000000" font-family="sans-serif" font-size="13" lengthAdjust="spacing" textLength="171" x="96.5" y="713.2856">Amount:yesterday's usage</text><line style="stroke:#181818;stroke-width:1.0;stroke-dasharray:2.0,2.0;" x1="706.5" x2="748.5" y1="762.6172" y2="762.6172"/><line style="stroke:#181818;stroke-width:1.0;stroke-dasharray:2.0,2.0;" x1="748.5" x2="748.5" y1="762.6172" y2="775.6172"/><line style="stroke:#181818;stroke-width:1.0;stroke-dasharray:2.0,2.0;" x1="707.5" x2="748.5" y1="775.6172" y2="775.6172"/><line style="stroke:#181818;stroke-width:1.0;" x1="707.5" x2="717.5" y1="775.6172" y2="771.6172"/><line style="stroke:#181818;stroke-width:1.0;" x1="707.5" x2="717.5" y1="775.6172" y2="779.6172"/><text fill="#000000" font-family="sans-serif" font-size="13" font-weight="bold" lengthAdjust="spacing" textLength="23" x="713.5" y="749.9849">3.4</text><text fill="#000000" font-family="sans-serif" font-size="13" lengthAdjust="spacing" textLength="263" x="740.5" y="742.4185">Add UPX &amp; SPinformationX token(Admin)</text><text fill="#000000" font-family="sans-serif" font-size="13" lengthAdjust="spacing" textLength="206" x="740.5" y="757.5513">Remove UPX &amp; SPX token(Alice)</text><polygon fill="#181818" points="607.5,815.8828,617.5,819.8828,607.5,823.8828,611.5,819.8828" style="stroke:#181818;stroke-width:1.0;"/><line style="stroke:#181818;stroke-width:1.0;stroke-dasharray:2.0,2.0;" x1="58.5" x2="613.5" y1="819.8828" y2="819.8828"/><text fill="#000000" font-family="sans-serif" font-size="13" font-weight="bold" lengthAdjust="spacing" textLength="23" x="65.5" y="807.2505">3.5</text><text fill="#000000" font-family="sans-serif" font-size="13" lengthAdjust="spacing" textLength="118" x="92.5" y="799.6841">Report transaction</text><text fill="#000000" font-family="sans-serif" font-size="13" lengthAdjust="spacing" textLength="110" x="92.5" y="814.8169">(price &amp; amount)</text><path d="M20,848.8828 L195,848.8828 L195,856.0156 L185,866.0156 L20,866.0156 L20,848.8828 " fill="#EEEEEE" style="stroke:#000000;stroke-width:1.5;"/><rect fill="none" height="263.1953" style="stroke:#000000;stroke-width:1.5;" width="645.5" x="20" y="848.8828"/><text fill="#000000" font-family="sans-serif" font-size="13" font-weight="bold" lengthAdjust="spacing" textLength="130" x="35" y="861.9497">Market Operation</text><polygon fill="#181818" points="607.5,883.1484,617.5,887.1484,607.5,891.1484,611.5,887.1484" style="stroke:#181818;stroke-width:1.0;"/><line style="stroke:#181818;stroke-width:1.0;stroke-dasharray:2.0,2.0;" x1="58.5" x2="613.5" y1="887.1484" y2="887.1484"/><text fill="#000000" font-family="sans-serif" font-size="13" font-weight="bold" lengthAdjust="spacing" textLength="23" x="65.5" y="882.0825">4.1</text><text fill="#000000" font-family="sans-serif" font-size="13" lengthAdjust="spacing" textLength="167" x="92.5" y="882.0825">Request past market data</text><polygon fill="#181818" points="69.5,912.2813,59.5,916.2813,69.5,920.2813,65.5,916.2813" style="stroke:#181818;stroke-width:1.0;"/><line style="stroke:#181818;stroke-width:1.0;stroke-dasharray:2.0,2.0;" x1="63.5" x2="618.5" y1="916.2813" y2="916.2813"/><text fill="#000000" font-family="sans-serif" font-size="13" font-weight="bold" lengthAdjust="spacing" textLength="23" x="75.5" y="911.2153">4.2</text><text fill="#000000" font-family="sans-serif" font-size="13" lengthAdjust="spacing" textLength="148" x="102.5" y="911.2153">Send past market data</text><line style="stroke:#181818;stroke-width:1.0;" x1="58.5" x2="100.5" y1="945.4141" y2="945.4141"/><line style="stroke:#181818;stroke-width:1.0;" x1="100.5" x2="100.5" y1="945.4141" y2="958.4141"/><line style="stroke:#181818;stroke-width:1.0;" x1="59.5" x2="100.5" y1="958.4141" y2="958.4141"/><polygon fill="#181818" points="69.5,954.4141,59.5,958.4141,69.5,962.4141,65.5,958.4141" style="stroke:#181818;stroke-width:1.0;"/><text fill="#000000" font-family="sans-serif" font-size="13" font-weight="bold" lengthAdjust="spacing" textLength="23" x="65.5" y="940.3481">4.3</text><text fill="#000000" font-family="sans-serif" font-size="13" lengthAdjust="spacing" textLength="241" x="92.5" y="940.3481">Calculate optimal market intervention</text><polygon fill="#181818" points="607.5,983.5469,617.5,987.5469,607.5,991.5469,611.5,987.5469" style="stroke:#181818;stroke-width:1.0;"/><line style="stroke:#181818;stroke-width:1.0;" x1="58.5" x2="613.5" y1="987.5469" y2="987.5469"/><text fill="#000000" font-family="sans-serif" font-size="13" font-weight="bold" lengthAdjust="spacing" textLength="23" x="65.5" y="982.481">4.4</text><text fill="#000000" font-family="sans-serif" font-size="13" lengthAdjust="spacing" textLength="283" x="92.5" y="982.481">Send UPX Bid or Ask order (price &amp; amount)</text><polygon fill="#181818" points="607.5,1012.6797,617.5,1016.6797,607.5,1020.6797,611.5,1016.6797" style="stroke:#181818;stroke-width:1.0;"/><line style="stroke:#181818;stroke-width:1.0;stroke-dasharray:2.0,2.0;" x1="58.5" x2="613.5" y1="1016.6797" y2="1016.6797"/><text fill="#000000" font-family="sans-serif" font-size="13" font-weight="bold" lengthAdjust="spacing" textLength="23" x="65.5" y="1011.6138">4.5</text><text fill="#000000" font-family="sans-serif" font-size="13" lengthAdjust="spacing" textLength="235" x="92.5" y="1011.6138">Request solar power generation data</text><polygon fill="#181818" points="69.5,1041.8125,59.5,1045.8125,69.5,1049.8125,65.5,1045.8125" style="stroke:#181818;stroke-width:1.0;"/><line style="stroke:#181818;stroke-width:1.0;stroke-dasharray:2.0,2.0;" x1="63.5" x2="618.5" y1="1045.8125" y2="1045.8125"/><text fill="#000000" font-family="sans-serif" font-size="13" font-weight="bold" lengthAdjust="spacing" textLength="23" x="75.5" y="1040.7466">4.6</text><text fill="#000000" font-family="sans-serif" font-size="13" lengthAdjust="spacing" textLength="216" x="102.5" y="1040.7466">Send solar power generation data</text><polygon fill="#181818" points="607.5,1070.9453,617.5,1074.9453,607.5,1078.9453,611.5,1074.9453" style="stroke:#181818;stroke-width:1.0;"/><line style="stroke:#181818;stroke-width:1.0;" x1="58.5" x2="613.5" y1="1074.9453" y2="1074.9453"/><text fill="#000000" font-family="sans-serif" font-size="13" font-weight="bold" lengthAdjust="spacing" textLength="23" x="65.5" y="1069.8794">4.7</text><text fill="#000000" font-family="sans-serif" font-size="13" lengthAdjust="spacing" textLength="241" x="92.5" y="1069.8794">Send SPX Ask order (price &amp; amount)</text><polygon fill="#181818" points="392.5,1100.0781,402.5,1104.0781,392.5,1108.0781,396.5,1104.0781" style="stroke:#181818;stroke-width:1.0;"/><line style="stroke:#181818;stroke-width:1.0;" x1="58.5" x2="398.5" y1="1104.0781" y2="1104.0781"/><text fill="#000000" font-family="sans-serif" font-size="13" font-weight="bold" lengthAdjust="spacing" textLength="23" x="65.5" y="1099.0122">4.8</text><text fill="#000000" font-family="sans-serif" font-size="13" lengthAdjust="spacing" textLength="226" x="92.5" y="1099.0122">Show market operation information</text><path d="M371.5,1126.0781 L590.5,1126.0781 L590.5,1133.2109 L580.5,1143.2109 L371.5,1143.2109 L371.5,1126.0781 " fill="#EEEEEE" style="stroke:#000000;stroke-width:1.5;"/><rect fill="none" height="105.6641" style="stroke:#000000;stroke-width:1.5;" width="294" x="371.5" y="1126.0781"/><text fill="#000000" font-family="sans-serif" font-size="13" font-weight="bold" lengthAdjust="spacing" textLength="174" x="386.5" y="1139.145">Student Order Issuance</text><polygon fill="#181818" points="607.5,1175.4766,617.5,1179.4766,607.5,1183.4766,611.5,1179.4766" style="stroke:#181818;stroke-width:1.0;"/><line style="stroke:#181818;stroke-width:1.0;" x1="404.5" x2="613.5" y1="1179.4766" y2="1179.4766"/><text fill="#000000" font-family="sans-serif" font-size="13" font-weight="bold" lengthAdjust="spacing" textLength="23" x="411.5" y="1166.8442">5.1</text><text fill="#000000" font-family="sans-serif" font-size="13" lengthAdjust="spacing" textLength="95" x="438.5" y="1159.2778">Send Bid order</text><text fill="#000000" font-family="sans-serif" font-size="13" lengthAdjust="spacing" textLength="110" x="438.5" y="1174.4106">(price &amp; amount)</text><polygon fill="#181818" points="607.5,1219.7422,617.5,1223.7422,607.5,1227.7422,611.5,1223.7422" style="stroke:#181818;stroke-width:1.0;"/><line style="stroke:#181818;stroke-width:1.0;" x1="458.5" x2="613.5" y1="1223.7422" y2="1223.7422"/><text fill="#000000" font-family="sans-serif" font-size="13" font-weight="bold" lengthAdjust="spacing" textLength="23" x="465.5" y="1211.1099">5.2</text><text fill="#000000" font-family="sans-serif" font-size="13" lengthAdjust="spacing" textLength="98" x="492.5" y="1203.5435">Send Ask order</text><text fill="#000000" font-family="sans-serif" font-size="13" lengthAdjust="spacing" textLength="110" x="492.5" y="1218.6763">(price &amp; amount)</text><path d="M10,1245.7422 L202,1245.7422 L202,1252.875 L192,1262.875 L10,1262.875 L10,1245.7422 " fill="#EEEEEE" style="stroke:#000000;stroke-width:1.5;"/><rect fill="none" height="309.5938" style="stroke:#000000;stroke-width:1.5;" width="907.5" x="10" y="1245.7422"/><text fill="#000000" font-family="sans-serif" font-size="13" font-weight="bold" lengthAdjust="spacing" textLength="147" x="25" y="1258.8091">Single Price Auction</text><polygon fill="#181818" points="607.5,1280.0078,617.5,1284.0078,607.5,1288.0078,611.5,1284.0078" style="stroke:#181818;stroke-width:1.0;"/><line style="stroke:#181818;stroke-width:1.0;stroke-dasharray:2.0,2.0;" x1="58.5" x2="613.5" y1="1284.0078" y2="1284.0078"/><text fill="#000000" font-family="sans-serif" font-size="13" font-weight="bold" lengthAdjust="spacing" textLength="23" x="65.5" y="1278.9419">5.3</text><text fill="#000000" font-family="sans-serif" font-size="13" lengthAdjust="spacing" textLength="174" x="92.5" y="1278.9419">Request Bid/Ask order data</text><polygon fill="#181818" points="69.5,1309.1406,59.5,1313.1406,69.5,1317.1406,65.5,1313.1406" style="stroke:#181818;stroke-width:1.0;"/><line style="stroke:#181818;stroke-width:1.0;stroke-dasharray:2.0,2.0;" x1="63.5" x2="618.5" y1="1313.1406" y2="1313.1406"/><text fill="#000000" font-family="sans-serif" font-size="13" font-weight="bold" lengthAdjust="spacing" textLength="23" x="75.5" y="1308.0747">5.4</text><text fill="#000000" font-family="sans-serif" font-size="13" lengthAdjust="spacing" textLength="155" x="102.5" y="1308.0747">Send Bid/Ask order data</text><line style="stroke:#181818;stroke-width:1.0;" x1="58.5" x2="100.5" y1="1342.2734" y2="1342.2734"/><line style="stroke:#181818;stroke-width:1.0;" x1="100.5" x2="100.5" y1="1342.2734" y2="1355.2734"/><line style="stroke:#181818;stroke-width:1.0;" x1="59.5" x2="100.5" y1="1355.2734" y2="1355.2734"/><polygon fill="#181818" points="69.5,1351.2734,59.5,1355.2734,69.5,1359.2734,65.5,1355.2734" style="stroke:#181818;stroke-width:1.0;"/><text fill="#000000" font-family="sans-serif" font-size="13" font-weight="bold" lengthAdjust="spacing" textLength="23" x="65.5" y="1337.2075">5.5</text><text fill="#000000" font-family="sans-serif" font-size="13" lengthAdjust="spacing" textLength="220" x="92.5" y="1337.2075">Calculate contract price &amp; amount</text><path d="M20,1370.2734 L86,1370.2734 L86,1377.4063 L76,1387.4063 L20,1387.4063 L20,1370.2734 " fill="#EEEEEE" style="stroke:#000000;stroke-width:1.5;"/><rect fill="none" height="178.0625" style="stroke:#000000;stroke-width:1.5;" width="887.5" x="20" y="1370.2734"/><text fill="#000000" font-family="sans-serif" font-size="13" font-weight="bold" lengthAdjust="spacing" textLength="16" x="35" y="1383.3403">Tx</text><text fill="#000000" font-family="sans-serif" font-size="11" font-weight="bold" lengthAdjust="spacing" textLength="110" x="101" y="1382.4839">[ex: Bob to Alice]</text><line style="stroke:#181818;stroke-width:1.0;" x1="704.5" x2="694.5" y1="1438.8047" y2="1434.8047"/><line style="stroke:#181818;stroke-width:1.0;" x1="704.5" x2="694.5" y1="1438.8047" y2="1442.8047"/><line style="stroke:#181818;stroke-width:1.0;stroke-dasharray:2.0,2.0;" x1="58.5" x2="705.5" y1="1438.8047" y2="1438.8047"/><text fill="#000000" font-family="sans-serif" font-size="13" font-weight="bold" lengthAdjust="spacing" textLength="23" x="65.5" y="1418.606">5.6</text><text fill="#000000" font-family="sans-serif" font-size="13" lengthAdjust="spacing" textLength="128" x="92.5" y="1403.4731">Request transaction</text><text fill="#000000" font-family="sans-serif" font-size="13" lengthAdjust="spacing" textLength="86" x="92.5" y="1418.606">(Bob to Alice)</text><text fill="#000000" font-family="sans-serif" font-size="13" lengthAdjust="spacing" textLength="165" x="92.5" y="1433.7388">Amount:Contract Amount</text><line style="stroke:#181818;stroke-width:1.0;stroke-dasharray:2.0,2.0;" x1="706.5" x2="748.5" y1="1483.0703" y2="1483.0703"/><line style="stroke:#181818;stroke-width:1.0;stroke-dasharray:2.0,2.0;" x1="748.5" x2="748.5" y1="1483.0703" y2="1496.0703"/><line style="stroke:#181818;stroke-width:1.0;stroke-dasharray:2.0,2.0;" x1="707.5" x2="748.5" y1="1496.0703" y2="1496.0703"/><line style="stroke:#181818;stroke-width:1.0;" x1="707.5" x2="717.5" y1="1496.0703" y2="1492.0703"/><line style="stroke:#181818;stroke-width:1.0;" x1="707.5" x2="717.5" y1="1496.0703" y2="1500.0703"/><text fill="#000000" font-family="sans-serif" font-size="13" font-weight="bold" lengthAdjust="spacing" textLength="23" x="713.5" y="1470.438">5.7</text><text fill="#000000" font-family="sans-serif" font-size="13" lengthAdjust="spacing" textLength="133" x="740.5" y="1462.8716">Add XRP token(Alice)</text><text fill="#000000" font-family="sans-serif" font-size="13" lengthAdjust="spacing" textLength="155" x="740.5" y="1478.0044">Remove XRP token(Bob)</text><polygon fill="#181818" points="607.5,1536.3359,617.5,1540.3359,607.5,1544.3359,611.5,1540.3359" style="stroke:#181818;stroke-width:1.0;"/><line style="stroke:#181818;stroke-width:1.0;stroke-dasharray:2.0,2.0;" x1="58.5" x2="613.5" y1="1540.3359" y2="1540.3359"/><text fill="#000000" font-family="sans-serif" font-size="13" font-weight="bold" lengthAdjust="spacing" textLength="23" x="65.5" y="1527.7036">5.8</text><text fill="#000000" font-family="sans-serif" font-size="13" lengthAdjust="spacing" textLength="118" x="92.5" y="1520.1372">Report transaction</text><text fill="#000000" font-family="sans-serif" font-size="13" lengthAdjust="spacing" textLength="110" x="92.5" y="1535.27">(price &amp; amount)</text><rect fill="#EEEEEE" height="3" style="stroke:#EEEEEE;stroke-width:1.0;" width="1079.5" x="0" y="1582.9023"/><line style="stroke:#000000;stroke-width:1.0;" x1="0" x2="1079.5" y1="1582.9023" y2="1582.9023"/><line style="stroke:#000000;stroke-width:1.0;" x1="0" x2="1079.5" y1="1585.9023" y2="1585.9023"/><rect fill="#EEEEEE" height="23.1328" style="stroke:#000000;stroke-width:2.0;" width="147" x="466.25" y="1572.3359"/><text fill="#000000" font-family="sans-serif" font-size="13" font-weight="bold" lengthAdjust="spacing" textLength="128" x="472.25" y="1588.4028">End of the Month</text><line style="stroke:#181818;stroke-width:1.0;" x1="704.5" x2="694.5" y1="1626.6016" y2="1622.6016"/><line style="stroke:#181818;stroke-width:1.0;" x1="704.5" x2="694.5" y1="1626.6016" y2="1630.6016"/><line style="stroke:#181818;stroke-width:1.0;stroke-dasharray:2.0,2.0;" x1="58.5" x2="705.5" y1="1626.6016" y2="1626.6016"/><text fill="#000000" font-family="sans-serif" font-size="13" font-weight="bold" lengthAdjust="spacing" textLength="23" x="65.5" y="1621.5356">6.1</text><text fill="#000000" font-family="sans-serif" font-size="13" lengthAdjust="spacing" textLength="232" x="92.5" y="1621.5356">Request student token balance data</text><line style="stroke:#181818;stroke-width:1.0;" x1="58.5" x2="68.5" y1="1655.7344" y2="1651.7344"/><line style="stroke:#181818;stroke-width:1.0;" x1="58.5" x2="68.5" y1="1655.7344" y2="1659.7344"/><line style="stroke:#181818;stroke-width:1.0;stroke-dasharray:2.0,2.0;" x1="58.5" x2="705.5" y1="1655.7344" y2="1655.7344"/><text fill="#000000" font-family="sans-serif" font-size="13" font-weight="bold" lengthAdjust="spacing" textLength="23" x="75.5" y="1650.6685">6.2</text><text fill="#000000" font-family="sans-serif" font-size="13" lengthAdjust="spacing" textLength="213" x="102.5" y="1650.6685">Send student token balance data</text><polygon fill="#181818" points="607.5,1696,617.5,1700,607.5,1704,611.5,1700" style="stroke:#181818;stroke-width:1.0;"/><line style="stroke:#181818;stroke-width:1.0;stroke-dasharray:2.0,2.0;" x1="58.5" x2="613.5" y1="1700" y2="1700"/><text fill="#000000" font-family="sans-serif" font-size="13" font-weight="bold" lengthAdjust="spacing" textLength="23" x="65.5" y="1687.3677">6.3</text><text fill="#000000" font-family="sans-serif" font-size="13" lengthAdjust="spacing" textLength="199" x="92.5" y="1679.8013">Request student payment data</text><text fill="#000000" font-family="sans-serif" font-size="13" lengthAdjust="spacing" textLength="114" x="92.5" y="1694.9341">&amp; past order data</text><polygon fill="#181818" points="69.5,1740.2656,59.5,1744.2656,69.5,1748.2656,65.5,1744.2656" style="stroke:#181818;stroke-width:1.0;"/><line style="stroke:#181818;stroke-width:1.0;stroke-dasharray:2.0,2.0;" x1="63.5" x2="618.5" y1="1744.2656" y2="1744.2656"/><text fill="#000000" font-family="sans-serif" font-size="13" font-weight="bold" lengthAdjust="spacing" textLength="23" x="75.5" y="1731.6333">6.4</text><text fill="#000000" font-family="sans-serif" font-size="13" lengthAdjust="spacing" textLength="180" x="102.5" y="1724.0669">Send student payment data</text><text fill="#000000" font-family="sans-serif" font-size="13" lengthAdjust="spacing" textLength="114" x="102.5" y="1739.1997">&amp; past order data</text><polygon fill="#181818" points="392.5,1769.3984,402.5,1773.3984,392.5,1777.3984,396.5,1773.3984" style="stroke:#181818;stroke-width:1.0;"/><line style="stroke:#181818;stroke-width:1.0;" x1="58.5" x2="398.5" y1="1773.3984" y2="1773.3984"/><text fill="#000000" font-family="sans-serif" font-size="13" font-weight="bold" lengthAdjust="spacing" textLength="23" x="65.5" y="1768.3325">6.5</text><text fill="#000000" font-family="sans-serif" font-size="13" lengthAdjust="spacing" textLength="139" x="92.5" y="1768.3325">Buy Alice's long token</text><polygon fill="#181818" points="446.5,1798.5313,456.5,1802.5313,446.5,1806.5313,450.5,1802.5313" style="stroke:#181818;stroke-width:1.0;"/><line style="stroke:#181818;stroke-width:1.0;" x1="58.5" x2="452.5" y1="1802.5313" y2="1802.5313"/><text fill="#000000" font-family="sans-serif" font-size="13" font-weight="bold" lengthAdjust="spacing" textLength="23" x="65.5" y="1797.4653">6.6</text><text fill="#000000" font-family="sans-serif" font-size="13" lengthAdjust="spacing" textLength="146" x="92.5" y="1797.4653">Sell to Bob short token</text><line style="stroke:#181818;stroke-width:1.0;" x1="58.5" x2="100.5" y1="1831.6641" y2="1831.6641"/><line style="stroke:#181818;stroke-width:1.0;" x1="100.5" x2="100.5" y1="1831.6641" y2="1844.6641"/><line style="stroke:#181818;stroke-width:1.0;" x1="59.5" x2="100.5" y1="1844.6641" y2="1844.6641"/><polygon fill="#181818" points="69.5,1840.6641,59.5,1844.6641,69.5,1848.6641,65.5,1844.6641" style="stroke:#181818;stroke-width:1.0;"/><text fill="#000000" font-family="sans-serif" font-size="13" font-weight="bold" lengthAdjust="spacing" textLength="23" x="65.5" y="1826.5981">6.7</text><text fill="#000000" font-family="sans-serif" font-size="13" lengthAdjust="spacing" textLength="264" x="92.5" y="1826.5981">Calculate student usage &amp; payment data</text><path d="M20,1859.6641 L86,1859.6641 L86,1866.7969 L76,1876.7969 L20,1876.7969 L20,1859.6641 " fill="#EEEEEE" style="stroke:#000000;stroke-width:1.5;"/><rect fill="none" height="162.9297" style="stroke:#000000;stroke-width:1.5;" width="938.5" x="20" y="1859.6641"/><text fill="#000000" font-family="sans-serif" font-size="13" font-weight="bold" lengthAdjust="spacing" textLength="16" x="35" y="1872.731">Tx</text><text fill="#000000" font-family="sans-serif" font-size="11" font-weight="bold" lengthAdjust="spacing" textLength="64" x="101" y="1871.8745">[ex: Alice]</text><line style="stroke:#181818;stroke-width:1.0;" x1="704.5" x2="694.5" y1="1913.0625" y2="1909.0625"/><line style="stroke:#181818;stroke-width:1.0;" x1="704.5" x2="694.5" y1="1913.0625" y2="1917.0625"/><line style="stroke:#181818;stroke-width:1.0;stroke-dasharray:2.0,2.0;" x1="58.5" x2="705.5" y1="1913.0625" y2="1913.0625"/><text fill="#000000" font-family="sans-serif" font-size="13" font-weight="bold" lengthAdjust="spacing" textLength="23" x="65.5" y="1900.4302">6.8</text><text fill="#000000" font-family="sans-serif" font-size="13" lengthAdjust="spacing" textLength="230" x="92.5" y="1892.8638">Request transaction(Alice to Admin)</text><text fill="#000000" font-family="sans-serif" font-size="13" lengthAdjust="spacing" textLength="124" x="96.5" y="1907.9966">Amount:All balance</text><line style="stroke:#181818;stroke-width:1.0;stroke-dasharray:2.0,2.0;" x1="706.5" x2="748.5" y1="1957.3281" y2="1957.3281"/><line style="stroke:#181818;stroke-width:1.0;stroke-dasharray:2.0,2.0;" x1="748.5" x2="748.5" y1="1957.3281" y2="1970.3281"/><line style="stroke:#181818;stroke-width:1.0;stroke-dasharray:2.0,2.0;" x1="707.5" x2="748.5" y1="1970.3281" y2="1970.3281"/><line style="stroke:#181818;stroke-width:1.0;" x1="707.5" x2="717.5" y1="1970.3281" y2="1966.3281"/><line style="stroke:#181818;stroke-width:1.0;" x1="707.5" x2="717.5" y1="1970.3281" y2="1974.3281"/><text fill="#000000" font-family="sans-serif" font-size="13" font-weight="bold" lengthAdjust="spacing" textLength="23" x="713.5" y="1944.6958">6.9</text><text fill="#000000" font-family="sans-serif" font-size="13" lengthAdjust="spacing" textLength="190" x="740.5" y="1937.1294">Add UPX &amp; SPX token(Admin)</text><text fill="#000000" font-family="sans-serif" font-size="13" lengthAdjust="spacing" textLength="206" x="740.5" y="1952.2622">Remove UPX &amp; SPX token(Alice)</text><polygon fill="#181818" points="607.5,2010.5938,617.5,2014.5938,607.5,2018.5938,611.5,2014.5938" style="stroke:#181818;stroke-width:1.0;"/><line style="stroke:#181818;stroke-width:1.0;stroke-dasharray:2.0,2.0;" x1="58.5" x2="613.5" y1="2014.5938" y2="2014.5938"/><text fill="#000000" font-family="sans-serif" font-size="13" font-weight="bold" lengthAdjust="spacing" textLength="32" x="65.5" y="2001.9614">6.10</text><text fill="#000000" font-family="sans-serif" font-size="13" lengthAdjust="spacing" textLength="118" x="101.5" y="1994.395">Report transaction</text><text fill="#000000" font-family="sans-serif" font-size="13" lengthAdjust="spacing" textLength="110" x="101.5" y="2009.5278">(price &amp; amount)</text><polygon fill="#181818" points="392.5,2046.7266,402.5,2050.7266,392.5,2054.7266,396.5,2050.7266" style="stroke:#181818;stroke-width:1.0;"/><line style="stroke:#181818;stroke-width:1.0;" x1="58.5" x2="398.5" y1="2050.7266" y2="2050.7266"/><text fill="#000000" font-family="sans-serif" font-size="13" font-weight="bold" lengthAdjust="spacing" textLength="32" x="65.5" y="2045.6606">6.11</text><text fill="#000000" font-family="sans-serif" font-size="13" lengthAdjust="spacing" textLength="286" x="101.5" y="2045.6606">Show monthly usage &amp; payment information</text><!--MD5=[4352cc0d11094ea29792d9a98280ba0c]
@startuml sequence

participant Admin      as sys #00FF00
participant Alice    as st1
participant Bob    as st2
database  Database as db1
database XRPLedger as xl   #00FFFF
database EnergyServer  as db2  #00FF00

== Beginning of the Month==
autonumber 1.1
sys - -> db1 : Sequest last month usage data
db1 - -> sys : Send last month usage data
sys -> st1 : Display last month usage & payment data
group Tx [ex: Alice]
sys - ->> xl : Request transaction(Admin to Alice)\n Amount:last month's usage
xl - ->> xl : Add UPX token(Alice)\nRemove UPX token(Admin)
sys - -> db1 : Report transaction\n(price & amount)
end

== Everyday ==
autonumber inc A
group Reflection of EnergyServer on Databasse
db2 - -> db1 : Send student usage & solar power generation data
sys - -> db1 : Request student usage data
sys <- - db1 : Send student usage data
sys -> st1 : Show next payment information
end
autonumber inc A
group Daily Payment
sys - -> db1 : Request yesterday's student usage data
sys <- - db1 : Send yesterday's student usage data
group Tx [ex: Alice]
sys - ->> xl : Request transaction(Alice to Admin)\n Amount:yesterday's usage
xl - ->> xl : Add UPX & SPinformationX token(Admin)\nRemove UPX & SPX token(Alice)
sys - -> db1 : Report transaction\n(price & amount)
end
end
autonumber inc A
group Market Operation
sys - -> db1 : Request past market data
sys <- - db1 : Send past market data
sys -> sys : Calculate optimal market intervention
sys -> db1 : Send UPX Bid or Ask order (price & amount)
sys - -> db1 : Request solar power generation data
sys <- - db1 : Send solar power generation data
sys -> db1 : Send SPX Ask order (price & amount)
sys -> st1 : Show market operation information
end
autonumber inc A
group Student Order Issuance
st1 -> db1 : Send Bid order\n(price & amount)
st2 -> db1 : Send Ask order\n(price & amount)
end

group Single Price Auction
sys - -> db1 : Request Bid/Ask order data
sys <- - db1 : Send Bid/Ask order data
sys -> sys : Calculate contract price & amount
group Tx [ex: Bob to Alice]
sys - ->> xl : Request transaction\n(Bob to Alice)\nAmount:Contract Amount
xl - ->> xl : Add XRP token(Alice)\nRemove XRP token(Bob)
sys - -> db1 : Report transaction\n(price & amount)
end
end

== End of the Month ==
autonumber inc A
sys - ->> xl : Request student token balance data
xl - ->> sys : Send student token balance data
sys - -> db1 : Request student payment data \n& past order data
sys <- - db1 : Send student payment data \n& past order data
sys -> st1 : Buy Alice's long token
sys -> st2 : Sell to Bob short token
sys -> sys : Calculate student usage & payment data
group Tx [ex: Alice]
sys - ->> xl : Request transaction(Alice to Admin)\n Amount:All balance
xl - ->> xl : Add UPX & SPX token(Admin)\nRemove UPX & SPX token(Alice)
sys - -> db1 : Report transaction\n(price & amount)
end
sys -> st1 : Show monthly usage & payment information
@enduml

PlantUML version 1.2022.5(Sat Apr 30 19:55:52 JST 2022)
(GPL source distribution)
Java Runtime: OpenJDK Runtime Environment
JVM: OpenJDK 64-Bit Server VM
Default Encoding: UTF-8
Language: en
Country: null
--></g></svg>